<?xml version="1.0" encoding="UTF-8" standalone="no"?>
<svg
   viewBox="0 0 170.08008 113.42773"
   version="1.1"
   id="svg2"
   sodipodi:docname="logo_npi_svg.svg"
   width="170.08008"
   height="113.42773"
   inkscape:version="1.3 (0e150ed6c4, 2023-07-21)"
   xmlns:inkscape="http://www.inkscape.org/namespaces/inkscape"
   xmlns:sodipodi="http://sodipodi.sourceforge.net/DTD/sodipodi-0.dtd"
   xmlns="http://www.w3.org/2000/svg"
   xmlns:svg="http://www.w3.org/2000/svg">
  <sodipodi:namedview
     id="namedview2"
     pagecolor="#ffffff"
     bordercolor="#000000"
     borderopacity="0.25"
     inkscape:showpageshadow="2"
     inkscape:pageopacity="0.0"
     inkscape:pagecheckerboard="0"
     inkscape:deskcolor="#d1d1d1"
     inkscape:zoom="2.345215"
     inkscape:cx="280.78449"
     inkscape:cy="33.472411"
     inkscape:window-width="3200"
     inkscape:window-height="1711"
     inkscape:window-x="3191"
     inkscape:window-y="-9"
     inkscape:window-maximized="1"
     inkscape:current-layer="svg2" />
  <defs
     id="defs1">
    <style
       id="style1">.cls-1{fill:#004383;}.cls-2{fill:#373737;}</style>
  </defs>
  <path
     id="path1"
     class="cls-1"
     d="M 149.375,0 A 9,9 0 0 0 143,2.6484375 a 8.69,8.69 0 0 0 -2.65039,6.359375 8.69,8.69 0 0 0 2.64258,6.3886725 9,9 0 0 0 12.73828,-0.0078 8.7,8.7 0 0 0 2.63867,-6.3808725 A 8.7,8.7 0 0 0 155.75,2.6484375 9,9 0 0 0 149.375,0 Z m -6.38281,15.396485 a 9,9 0 0 1 -0.0117,-0.0078 L 143,15.408204 a 8.69,8.69 0 0 1 -0.008,-0.01172 z m -37.92188,6.121093 c -3.70666,0.0067 -7.560548,1.363648 -11.560544,4.070312 -0.05,0 -0.13,-0.05016 -0.25,-0.160156 -0.7,-2.219998 -1.9562,-3.330078 -3.769532,-3.330078 H 67.230469 v 1.160156 c 5.909994,0 8.910156,2.620318 8.910156,7.820313 v 74.999995 c 0,5.2 -2.970162,6.19922 -8.910156,6.19922 v 1.15039 h 35.619141 v -1.15039 c -5.909995,0 -8.910157,-0.97969 -8.910157,-6.17969 V 77.007812 a 19.91,19.91 0 0 0 11.121097,3.689453 c 8.83999,0 15.87294,-2.613181 21.09961,-7.839844 C 131.38682,67.63076 134,60.401292 134,51.167968 c 0.02,-9.25999 -2.60753,-16.516203 -7.88086,-21.769531 -5.27333,-5.253328 -12.28884,-7.880859 -21.04883,-7.880859 z m -68.951169,0.06055 c -3.706663,0 -7.558598,1.393024 -11.558594,4.179688 a 0.58,0.58 0 0 1 -0.240235,-0.16016 C 23.610313,23.307658 22.360779,22.167968 20.550781,22.167968 H 1.9609375 v 1.609375 c 3.4999965,0.966666 5.25,3.504666 5.25,7.611328 V 70.83789 c -0.00667,4.85333 -2.4109423,7.520001 -7.2109375,8 v 1.169922 H 33.900391 V 78.796875 C 28.000397,78.796875 25,76.14687 25,70.796875 V 36.367187 31.007812 a 39.73,39.73 0 0 0 -0.230469,-4 18.53,18.53 0 0 1 11.330078,-4.279297 c 7.413326,-0.0067 11.121094,7.085978 11.121094,21.279297 v 26.839844 c -0.0067,5.333328 -2.97373,8 -8.900391,8 v 1.160156 h 34 V 78.888671 C 67.440317,78.408672 65,75.728667 65,70.888671 v -28 C 65,28.682019 55.372455,21.578125 36.119141,21.578125 Z m 96.281249,0.580079 v 1.21875 c 6.17333,0 9.25977,2.666673 9.25977,8 v 39.460938 c 0.007,5.333327 -3.07978,8 -9.25977,8 v 1.169917 h 37.67969 v -1.220703 c -6.18,0 -9.88086,-2.650005 -9.88086,-8 V 31.376953 c 0,-6.129994 -1.54868,-9.21875 -4.63867,-9.21875 z m -27.33008,0.509765 c 4.8,0 8.00883,2.119145 9.79883,6.369141 0.9,2.129998 1.33008,9.460872 1.33008,22.13086 0,12.309988 -0.43008,19.630237 -1.33008,21.990235 -1.71,4.249995 -4.95883,6.36914 -9.79883,6.36914 a 18.57,18.57 0 0 1 -11.130857,-4 c 0,-14.919985 0.14,-29.898608 0,-44.808593 -0.01,-1.369999 -0.08875,-2.660158 -0.21875,-3.910157 a 18.77,18.77 0 0 1 11.349607,-4.140626 z" />
</svg>
