<?xml version="1.0" encoding="UTF-8"?>
<!DOCTYPE svg PUBLIC "-//W3C//DTD SVG 1.1//EN" "http://www.w3.org/Graphics/SVG/1.1/DTD/svg11.dtd">
<!-- Creator: CorelDRAW (Není určeno pro komerční použití) -->
<svg xmlns="http://www.w3.org/2000/svg" xml:space="preserve" width="115.789mm" height="28.6546mm" version="1.1" style="shape-rendering:geometricPrecision; text-rendering:geometricPrecision; image-rendering:optimizeQuality; fill-rule:evenodd; clip-rule:evenodd"
viewBox="0 0 5824.36 1441.37"
 xmlns:xlink="http://www.w3.org/1999/xlink"
 xmlns:xodm="http://www.corel.com/coreldraw/odm/2003">
 <defs>
  <style type="text/css">
   <![CDATA[
    .fil1 {fill:white;fill-rule:nonzero}
    .fil2 {fill:#02216E;fill-rule:nonzero}
    .fil0 {fill:#3566FC;fill-rule:nonzero}
   ]]>
  </style>
 </defs>
 <g id="Vrstva_x0020_1">
  <metadata id="CorelCorpID_0Corel-Layer"/>
  <polygon class="fil0" points="-0,1441.37 1441.36,1441.37 1441.36,0 -0,0 "/>
  <path class="fil1" d="M1096.39 519.71c-11.5,-11.5 -16.97,-24.84 -16.97,-41.18 0,-15.73 5.47,-29.66 16.97,-41.16 11.5,-11.51 24.84,-16.97 40.57,-16.97 15.76,0 29.67,5.46 40.57,16.97 11.53,11.5 16.96,24.79 16.96,41.16 0,15.76 -5.43,29.67 -16.96,41.18 -11.5,11.52 -24.8,16.96 -40.57,16.96 -15.73,0 -29.07,-5.44 -40.57,-16.96zm-67.83 42.99l148.37 0c19.99,0 29.7,20 29.7,59.37l0 252.51c0,34.53 23.6,51.47 63.57,51.47l0 7.26 -241.64 0 0 -7.26c39.37,0 59.36,-16.94 59.36,-51.47l0 -252.51c0,-34.53 -19.99,-51.5 -59.36,-51.5l0 -7.87zm-274.91 0c11.5,0 19.37,7.27 24.2,21.2 0.63,0.6 1.23,1.23 1.84,1.23 25.44,-17.6 50.27,-26.06 73.87,-26.06 56.33,0 101.13,16.96 135.03,50.26 33.94,33.9 50.87,79.94 50.87,139.27 0,59.36 -16.93,105.37 -50.24,139.3 -33.29,33.3 -78.73,50.27 -135.03,50.27 -23.63,0 -47.87,-7.9 -71.47,-23.64l0 186.54c0,33.3 18.77,39.34 56.9,39.34l0 7.27 -228.27 0 0 -7.27c38.13,0 56.9,-6.66 56.9,-39.96l0 -480.21c0,-33.31 -18.77,-50.27 -56.9,-50.27l0 -7.27 142.3 0zm171.37 185.91c0,-81.14 -3.03,-128.37 -8.47,-141.71 -11.52,-27.23 -32.1,-40.57 -63,-40.57 -24.84,0 -49.03,9.1 -72.67,26.67 0.59,7.87 1.23,16.33 1.23,24.8 0.6,95.7 0,191.37 0,287.04 23.01,16.97 47.24,26.04 71.44,26.04 30.9,0 52.1,-13.3 63,-40.57 5.44,-15.74 8.47,-62.38 8.47,-141.71zm-584.38 -94.47l0 220.44c0,34.53 18.77,51.47 56.94,51.47l0 7.26 -217.4 0 0 -7.87c30.86,-3.03 46.03,-19.97 46.03,-50.86l0 -252.51c0,-26.67 -11.53,-42.4 -33.93,-49.07l0 -10.3 119.3 0c11.5,0 19.37,7.27 24.24,21.81 0.6,0.63 1.2,1.2 1.81,1.2 25.43,-17.54 50.26,-26.63 73.9,-26.63 123.54,0 185.3,45.43 185.3,136.87l0 179.24c0,30.9 15.74,48.46 46.63,50.86l0 7.87 -218.03 0 0 -7.27c38.16,0 56.94,-16.94 56.94,-51.46l0 -171.98c0,-90.84 -23.61,-136.27 -71.48,-136.27 -24.8,0 -49.03,9.09 -72.67,27.26 0.63,8.47 1.24,16.94 1.24,26.04 1.2,10.9 1.2,22.39 1.2,33.9z"/>
  <g id="_2123581864944">
   <path class="fil2" d="M1941.45 629.32l-31.53 0 -114.71 -178.07 -1.2 0c0.4,7.01 0.9,15.71 1.5,26.13 0.6,10.41 0.9,21.12 0.9,32.13l0 119.81 -24.92 0 0 -214.4 31.23 0 114.41 177.46 1.2 0c-0.2,-3.2 -0.45,-8.01 -0.75,-14.41 -0.3,-6.41 -0.6,-13.41 -0.9,-21.02 -0.3,-7.61 -0.45,-14.61 -0.45,-21.02l0 -121.02 25.22 0 0 214.4zm115.61 -163.65c19.62,0 34.13,4.3 43.54,12.91 9.41,8.61 14.11,22.32 14.11,41.14l0 109.6 -19.22 0 -5.11 -22.82 -1.2 0c-7.01,8.81 -14.37,15.32 -22.07,19.52 -7.71,4.21 -18.37,6.31 -31.98,6.31 -14.62,0 -26.73,-3.85 -36.34,-11.56 -9.61,-7.71 -14.41,-19.77 -14.41,-36.19 0,-16.01 6.31,-28.38 18.92,-37.08 12.61,-8.71 32.03,-13.47 58.25,-14.27l27.32 -0.9 0 -9.61c0,-13.42 -2.9,-22.72 -8.71,-27.93 -5.8,-5.21 -14.01,-7.81 -24.62,-7.81 -8.41,0 -16.41,1.25 -24.02,3.75 -7.61,2.51 -14.71,5.36 -21.32,8.56l-8.11 -19.82c7.01,-3.8 15.32,-7.06 24.92,-9.76 9.61,-2.71 19.62,-4.05 30.02,-4.05zm7.81 85.88c-20.02,0.8 -33.88,4 -41.59,9.61 -7.71,5.6 -11.56,13.51 -11.56,23.72 0,9.01 2.76,15.61 8.26,19.82 5.5,4.21 12.56,6.31 21.17,6.31 13.61,0 24.92,-3.76 33.93,-11.26 9.01,-7.5 13.52,-19.07 13.52,-34.68l0 -14.41 -23.72 0.9zm34.53 -149.24c-2.4,3.6 -6.11,8.25 -11.11,13.96 -5,5.7 -10.36,11.41 -16.07,17.11 -5.7,5.71 -10.96,10.36 -15.76,13.96l-17.41 0 0 -3.6c3,-3.8 6.25,-8.31 9.76,-13.51 3.5,-5.21 6.96,-10.56 10.36,-16.07 3.41,-5.51 6.21,-10.46 8.41,-14.86l31.83 0 0 3zm140.23 63.06c3,0 6.26,0.15 9.76,0.45 3.51,0.3 6.56,0.75 9.16,1.35l-3.3 24.33c-2.6,-0.6 -5.45,-1.1 -8.56,-1.5 -3.1,-0.4 -6.06,-0.6 -8.86,-0.6 -8.21,0 -15.92,2.25 -23.12,6.76 -7.2,4.5 -12.96,10.81 -17.26,18.92 -4.31,8.1 -6.46,17.57 -6.46,28.38l0 85.88 -26.42 0 0 -160.95 21.62 0 3 29.43 1.2 0c5.21,-8.81 11.91,-16.41 20.12,-22.82 8.2,-6.4 17.92,-9.61 29.12,-9.61zm182.87 83.18c0,26.62 -6.76,47.24 -20.27,61.86 -13.51,14.61 -31.78,21.92 -54.8,21.92 -14.21,0 -26.87,-3.25 -37.98,-9.76 -11.11,-6.51 -19.87,-16.02 -26.27,-28.53 -6.41,-12.51 -9.61,-27.68 -9.61,-45.49 0,-26.62 6.71,-47.14 20.12,-61.56 13.41,-14.41 31.63,-21.62 54.65,-21.62 14.61,0 27.47,3.25 38.59,9.76 11.11,6.51 19.81,15.92 26.12,28.23 6.31,12.31 9.46,27.37 9.46,45.19zm-121.61 0c0,19.02 3.75,34.08 11.26,45.19 7.51,11.11 19.47,16.66 35.89,16.66 16.21,0 28.12,-5.55 35.73,-16.66 7.61,-11.11 11.41,-26.17 11.41,-45.19 0,-19.02 -3.8,-33.93 -11.41,-44.74 -7.61,-10.81 -19.62,-16.22 -36.04,-16.22 -16.41,0 -28.32,5.41 -35.73,16.22 -7.4,10.81 -11.11,25.72 -11.11,44.74zm220.4 83.78c-20.01,0 -36.03,-6.96 -48.04,-20.87 -12.01,-13.91 -18.02,-34.68 -18.02,-62.31 0,-27.63 6.06,-48.5 18.17,-62.61 12.11,-14.11 28.17,-21.17 48.19,-21.17 12.41,0 22.57,2.3 30.48,6.91 7.91,4.6 14.37,10.21 19.37,16.82l1.8 0c-0.2,-2.6 -0.55,-6.45 -1.05,-11.56 -0.5,-5.11 -0.75,-9.16 -0.75,-12.16l0 -64.26 26.42 0 0 228.21 -21.32 0 -3.9 -21.62 -1.2 0c-4.81,6.81 -11.21,12.61 -19.22,17.41 -8.01,4.8 -18.31,7.21 -30.93,7.21zm4.21 -21.92c17.02,0 28.98,-4.65 35.89,-13.96 6.91,-9.31 10.36,-23.37 10.36,-42.19l0 -4.8c0,-20.02 -3.3,-35.38 -9.91,-46.09 -6.6,-10.71 -18.82,-16.07 -36.63,-16.07 -14.21,0 -24.87,5.65 -31.98,16.97 -7.11,11.31 -10.66,26.47 -10.66,45.49 0,19.22 3.55,34.13 10.66,44.74 7.11,10.61 17.87,15.92 32.28,15.92zm200.89 -145.03c19.22,0 33.73,4.65 43.54,13.96 9.81,9.31 14.71,24.37 14.71,45.19l0 104.8 -26.13 0 0 -103c0,-25.82 -12.01,-38.74 -36.03,-38.74 -17.82,0 -30.13,5 -36.94,15.01 -6.81,10.01 -10.21,24.43 -10.21,43.24l0 83.48 -26.42 0 0 -160.95 21.32 0 3.9 21.92 1.5 0c5.21,-8.41 12.41,-14.66 21.62,-18.77 9.21,-4.1 18.92,-6.16 29.13,-6.16zm134.52 163.95l-26.42 0 0 -160.95 26.42 0 0 160.95zm31.23 -227.01c-2.4,3.6 -6.11,8.25 -11.11,13.96 -5,5.7 -10.36,11.41 -16.07,17.11 -5.7,5.71 -10.96,10.36 -15.76,13.96l-17.41 0 0 -3.6c3,-3.8 6.26,-8.31 9.76,-13.51 3.5,-5.21 6.96,-10.56 10.36,-16.07 3.4,-5.51 6.2,-10.46 8.41,-14.86l31.83 0 0 3zm174.47 63.06c19.82,0 35.78,6.91 47.89,20.72 12.11,13.81 18.17,34.63 18.17,62.46 0,27.42 -6.06,48.24 -18.17,62.46 -12.11,14.21 -28.17,21.32 -48.19,21.32 -12.41,0 -22.67,-2.35 -30.78,-7.06 -8.11,-4.7 -14.46,-10.16 -19.07,-16.36l-1.8 0c0.4,3.4 0.8,7.71 1.2,12.91 0.4,5.2 0.6,9.71 0.6,13.51l0 66.06 -26.42 0 0 -233.02 21.62 0 3.61 21.92 1.2 0c4.81,-7.01 11.11,-12.91 18.92,-17.72 7.81,-4.8 18.22,-7.21 31.23,-7.21zm-4.8 22.22c-16.42,0 -27.98,4.61 -34.68,13.82 -6.71,9.21 -10.26,23.22 -10.66,42.04l0 5.11c0,19.82 3.25,35.08 9.76,45.79 6.5,10.71 18.57,16.07 36.18,16.07 9.81,0 17.87,-2.7 24.17,-8.11 6.31,-5.4 11.01,-12.76 14.11,-22.07 3.1,-9.31 4.65,-19.97 4.65,-31.98 0,-18.42 -3.55,-33.13 -10.66,-44.14 -7.11,-11.01 -18.06,-16.52 -32.88,-16.52zm175.06 -22.22c13.81,0 25.67,3 35.58,9.01 9.91,6.01 17.51,14.46 22.82,25.37 5.31,10.91 7.96,23.67 7.96,38.28l0 15.92 -110.2 0c0.4,18.22 5.05,32.08 13.96,41.59 8.91,9.51 21.37,14.27 37.39,14.27 10.21,0 19.27,-0.95 27.17,-2.85 7.91,-1.9 16.07,-4.66 24.47,-8.26l0 23.12c-8.2,3.6 -16.31,6.25 -24.32,7.96 -8.01,1.7 -17.51,2.55 -28.53,2.55 -15.22,0 -28.68,-3.1 -40.39,-9.31 -11.71,-6.2 -20.82,-15.46 -27.33,-27.77 -6.5,-12.31 -9.76,-27.38 -9.76,-45.2 0,-17.62 2.95,-32.73 8.86,-45.34 5.91,-12.61 14.22,-22.32 24.92,-29.12 10.71,-6.81 23.17,-10.21 37.38,-10.21zm-0.3 21.62c-12.62,0 -22.58,4.05 -29.88,12.16 -7.31,8.11 -11.66,19.37 -13.06,33.78l81.98 0c-0.2,-13.62 -3.41,-24.67 -9.61,-33.18 -6.21,-8.51 -16.02,-12.76 -29.43,-12.76zm164.55 145.34c-20.01,0 -36.03,-6.96 -48.04,-20.87 -12.01,-13.91 -18.02,-34.68 -18.02,-62.31 0,-27.63 6.06,-48.5 18.17,-62.61 12.11,-14.11 28.17,-21.17 48.19,-21.17 12.41,0 22.57,2.3 30.48,6.91 7.91,4.6 14.37,10.21 19.37,16.82l1.8 0c-0.2,-2.6 -0.55,-6.45 -1.05,-11.56 -0.5,-5.11 -0.75,-9.16 -0.75,-12.16l0 -64.26 26.42 0 0 228.21 -21.32 0 -3.9 -21.62 -1.2 0c-4.81,6.81 -11.21,12.61 -19.22,17.41 -8.01,4.8 -18.31,7.21 -30.93,7.21zm4.21 -21.92c17.02,0 28.98,-4.65 35.89,-13.96 6.91,-9.31 10.36,-23.37 10.36,-42.19l0 -4.8c0,-20.02 -3.3,-35.38 -9.91,-46.09 -6.6,-10.71 -18.82,-16.07 -36.63,-16.07 -14.21,0 -24.87,5.65 -31.98,16.97 -7.11,11.31 -10.66,26.47 -10.66,45.49 0,19.22 3.55,34.13 10.66,44.74 7.11,10.61 17.87,15.92 32.28,15.92zm184.37 -144.73c19.62,0 34.13,4.3 43.54,12.91 9.41,8.61 14.11,22.32 14.11,41.14l0 109.6 -19.22 0 -5.11 -22.82 -1.2 0c-7.01,8.81 -14.37,15.32 -22.07,19.52 -7.71,4.21 -18.37,6.31 -31.98,6.31 -14.62,0 -26.73,-3.85 -36.34,-11.56 -9.61,-7.71 -14.41,-19.77 -14.41,-36.19 0,-16.01 6.31,-28.38 18.92,-37.08 12.61,-8.71 32.03,-13.47 58.25,-14.27l27.32 -0.9 0 -9.61c0,-13.42 -2.9,-22.72 -8.71,-27.93 -5.8,-5.21 -14.01,-7.81 -24.62,-7.81 -8.41,0 -16.41,1.25 -24.02,3.75 -7.61,2.51 -14.71,5.36 -21.32,8.56l-8.11 -19.82c7.01,-3.8 15.32,-7.06 24.92,-9.76 9.61,-2.71 19.62,-4.05 30.02,-4.05zm7.81 85.88c-20.02,0.8 -33.88,4 -41.59,9.61 -7.71,5.6 -11.56,13.51 -11.56,23.72 0,9.01 2.76,15.61 8.26,19.82 5.5,4.21 12.56,6.31 21.17,6.31 13.61,0 24.92,-3.76 33.93,-11.26 9.01,-7.5 13.52,-19.07 13.52,-34.68l0 -14.41 -23.72 0.9zm156.74 -86.18c10.61,0 20.17,2 28.68,6.01 8.51,4 15.76,10.11 21.77,18.31l1.5 0 3.6 -21.32 21.02 0 0 163.65c0,23.02 -5.86,40.34 -17.57,51.95 -11.71,11.61 -29.88,17.41 -54.5,17.41 -23.62,0 -42.94,-3.41 -57.95,-10.21l0 -24.32c15.81,8.41 35.63,12.61 59.45,12.61 13.81,0 24.67,-4.05 32.58,-12.16 7.91,-8.11 11.86,-19.17 11.86,-33.18l0 -6.3c0,-2.4 0.1,-5.86 0.3,-10.36 0.2,-4.5 0.4,-7.66 0.6,-9.46l-1.2 0c-10.81,16.21 -27.43,24.32 -49.85,24.32 -20.82,0 -37.08,-7.31 -48.8,-21.92 -11.71,-14.61 -17.57,-35.03 -17.57,-61.26 0,-25.62 5.86,-45.99 17.57,-61.11 11.72,-15.12 27.88,-22.67 48.5,-22.67zm3.61 22.22c-13.42,0 -23.82,5.36 -31.23,16.07 -7.4,10.71 -11.11,25.98 -11.11,45.79 0,19.82 3.65,34.98 10.96,45.49 7.3,10.51 17.96,15.76 31.98,15.76 16.22,0 28.03,-4.36 35.43,-13.06 7.41,-8.71 11.11,-22.77 11.11,-42.19l0 -6.31c0,-22.02 -3.8,-37.79 -11.41,-47.29 -7.61,-9.51 -19.52,-14.27 -35.73,-14.27zm263.94 60.96c0,26.62 -6.76,47.24 -20.27,61.86 -13.51,14.61 -31.78,21.92 -54.8,21.92 -14.21,0 -26.87,-3.25 -37.98,-9.76 -11.11,-6.51 -19.87,-16.02 -26.27,-28.53 -6.41,-12.51 -9.61,-27.68 -9.61,-45.49 0,-26.62 6.71,-47.14 20.12,-61.56 13.41,-14.41 31.63,-21.62 54.65,-21.62 14.61,0 27.47,3.25 38.59,9.76 11.11,6.51 19.81,15.92 26.12,28.23 6.31,12.31 9.46,27.37 9.46,45.19zm-121.61 0c0,19.02 3.75,34.08 11.26,45.19 7.51,11.11 19.47,16.66 35.89,16.66 16.21,0 28.12,-5.55 35.73,-16.66 7.61,-11.11 11.41,-26.17 11.41,-45.19 0,-19.02 -3.8,-33.93 -11.41,-44.74 -7.61,-10.81 -19.62,-16.22 -36.04,-16.22 -16.41,0 -28.32,5.41 -35.73,16.22 -7.4,10.81 -11.11,25.72 -11.11,44.74zm220.4 -83.18c10.61,0 20.17,2 28.68,6.01 8.51,4 15.76,10.11 21.77,18.31l1.5 0 3.6 -21.32 21.02 0 0 163.65c0,23.02 -5.86,40.34 -17.57,51.95 -11.71,11.61 -29.88,17.41 -54.5,17.41 -23.62,0 -42.94,-3.41 -57.95,-10.21l0 -24.32c15.81,8.41 35.63,12.61 59.45,12.61 13.81,0 24.67,-4.05 32.58,-12.16 7.91,-8.11 11.86,-19.17 11.86,-33.18l0 -6.3c0,-2.4 0.1,-5.86 0.3,-10.36 0.2,-4.5 0.4,-7.66 0.6,-9.46l-1.2 0c-10.81,16.21 -27.43,24.32 -49.85,24.32 -20.82,0 -37.08,-7.31 -48.8,-21.92 -11.71,-14.61 -17.57,-35.03 -17.57,-61.26 0,-25.62 5.86,-45.99 17.57,-61.11 11.72,-15.12 27.88,-22.67 48.5,-22.67zm3.61 22.22c-13.42,0 -23.82,5.36 -31.23,16.07 -7.4,10.71 -11.11,25.98 -11.11,45.79 0,19.82 3.65,34.98 10.96,45.49 7.3,10.51 17.96,15.76 31.98,15.76 16.22,0 28.03,-4.36 35.43,-13.06 7.41,-8.71 11.11,-22.77 11.11,-42.19l0 -6.31c0,-22.02 -3.8,-37.79 -11.41,-47.29 -7.61,-9.51 -19.52,-14.27 -35.73,-14.27zm137.52 -79.57c4,0 7.56,1.35 10.66,4.05 3.1,2.7 4.65,6.96 4.65,12.76 0,5.6 -1.55,9.81 -4.65,12.61 -3.1,2.8 -6.66,4.21 -10.66,4.21 -4.4,0 -8.1,-1.4 -11.11,-4.21 -3,-2.8 -4.51,-7.01 -4.51,-12.61 0,-5.8 1.5,-10.06 4.51,-12.76 3,-2.7 6.71,-4.05 11.11,-4.05zm12.91 60.36l0 160.95 -26.42 0 0 -160.95 26.42 0zm115.61 163.95c-14.22,0 -26.88,-2.9 -37.99,-8.71 -11.11,-5.8 -19.82,-14.81 -26.12,-27.03 -6.31,-12.21 -9.46,-27.83 -9.46,-46.84 0,-19.82 3.3,-35.94 9.91,-48.34 6.61,-12.41 15.56,-21.52 26.88,-27.33 11.31,-5.8 24.17,-8.71 38.59,-8.71 8.21,0 16.12,0.85 23.72,2.55 7.61,1.71 13.81,3.76 18.62,6.16l-8.11 21.92c-4.8,-1.8 -10.41,-3.5 -16.82,-5.11 -6.4,-1.6 -12.41,-2.4 -18.01,-2.4 -31.63,0 -47.44,20.32 -47.44,60.96 0,19.42 3.85,34.28 11.56,44.59 7.71,10.31 19.17,15.46 34.38,15.46 8.81,0 16.56,-0.9 23.27,-2.7 6.71,-1.8 12.86,-4 18.47,-6.61l0 23.43c-5.41,2.8 -11.36,4.95 -17.87,6.45 -6.5,1.5 -14.37,2.25 -23.57,2.25zm105.7 -112.01c0,3.2 -0.15,7.41 -0.45,12.62 -0.3,5.2 -0.55,9.71 -0.75,13.51l1.2 0c1.2,-1.6 3,-3.9 5.4,-6.91 2.4,-3 4.85,-6.06 7.36,-9.16 2.5,-3.1 4.65,-5.65 6.45,-7.66l51.35 -54.35 30.93 0 -65.16 68.76 69.66 92.19 -31.83 0 -55.85 -75.07 -18.31 15.92 0 59.15 -26.13 0 0 -228.21 26.13 0 0 119.21zm109 -51.95l28.22 0 34.83 91.58c3,8.01 5.7,15.66 8.11,22.97 2.4,7.31 4.2,14.27 5.4,20.87l1.2 0c1.2,-5 3.1,-11.56 5.7,-19.67 2.61,-8.11 5.31,-16.27 8.11,-24.47l32.73 -91.29 28.53 0 -69.37 183.17c-5.6,15.21 -12.86,27.32 -21.77,36.33 -8.91,9.01 -21.17,13.51 -36.79,13.51 -4.8,0 -9,-0.25 -12.61,-0.75 -3.6,-0.5 -6.71,-1.05 -9.31,-1.65l0 -21.02c2.2,0.4 4.85,0.8 7.96,1.2 3.1,0.4 6.35,0.6 9.76,0.6 9.21,0 16.66,-2.6 22.37,-7.81 5.7,-5.21 10.16,-12.11 13.37,-20.72l8.41 -21.32 -64.86 -161.55zm120.71 -66.06c-2.4,3.6 -6.1,8.25 -11.11,13.96 -5,5.7 -10.36,11.41 -16.07,17.11 -5.7,5.71 -10.96,10.36 -15.76,13.96l-17.41 0 0 -3.6c3,-3.8 6.25,-8.31 9.76,-13.51 3.5,-5.21 6.96,-10.56 10.36,-16.07 3.41,-5.51 6.21,-10.46 8.41,-14.86l31.83 0 0 3zm149.24 5.7c4,0 7.56,1.35 10.66,4.05 3.1,2.7 4.65,6.96 4.65,12.76 0,5.6 -1.55,9.81 -4.65,12.61 -3.1,2.8 -6.66,4.21 -10.66,4.21 -4.4,0 -8.1,-1.4 -11.11,-4.21 -3,-2.8 -4.51,-7.01 -4.51,-12.61 0,-5.8 1.5,-10.06 4.51,-12.76 3,-2.7 6.71,-4.05 11.11,-4.05zm12.91 60.36l0 160.95 -26.42 0 0 -160.95 26.42 0zm128.53 -3c19.22,0 33.73,4.65 43.54,13.96 9.81,9.31 14.71,24.37 14.71,45.19l0 104.8 -26.13 0 0 -103c0,-25.82 -12.01,-38.74 -36.03,-38.74 -17.82,0 -30.13,5 -36.94,15.01 -6.81,10.01 -10.21,24.43 -10.21,43.24l0 83.48 -26.42 0 0 -160.95 21.32 0 3.9 21.92 1.5 0c5.21,-8.41 12.41,-14.66 21.62,-18.77 9.21,-4.1 18.92,-6.16 29.13,-6.16zm212.9 119.51c0,15.61 -5.8,27.42 -17.41,35.43 -11.61,8.01 -27.23,12.01 -46.85,12.01 -11.21,0 -20.87,-0.9 -28.98,-2.7 -8.1,-1.8 -15.26,-4.31 -21.47,-7.51l0 -24.02c6.41,3.2 14.16,6.15 23.27,8.86 9.1,2.7 18.37,4.05 27.78,4.05 13.41,0 23.12,-2.15 29.12,-6.46 6.01,-4.31 9.01,-10.06 9.01,-17.26 0,-4 -1.1,-7.61 -3.3,-10.81 -2.2,-3.2 -6.16,-6.41 -11.86,-9.61 -5.7,-3.2 -13.86,-6.81 -24.47,-10.81 -10.41,-4 -19.32,-8.01 -26.73,-12.01 -7.4,-4 -13.11,-8.81 -17.12,-14.41 -4,-5.6 -6.01,-12.81 -6.01,-21.62 0,-13.61 5.56,-24.12 16.67,-31.53 11.11,-7.41 25.67,-11.11 43.69,-11.11 9.81,0 18.97,0.95 27.48,2.85 8.51,1.9 16.46,4.55 23.87,7.96l-9 21.02c-6.81,-2.8 -13.91,-5.21 -21.32,-7.21 -7.4,-2 -15.01,-3 -22.82,-3 -10.81,0 -19.06,1.75 -24.77,5.26 -5.7,3.5 -8.56,8.25 -8.56,14.26 0,4.41 1.3,8.16 3.9,11.26 2.6,3.1 6.96,6.11 13.06,9.01 6.11,2.9 14.26,6.35 24.47,10.36 10.21,3.8 18.92,7.71 26.13,11.71 7.2,4 12.71,8.86 16.51,14.57 3.8,5.7 5.7,12.86 5.7,21.47zm92.79 25.82c4,0 8.11,-0.35 12.31,-1.05 4.21,-0.7 7.61,-1.45 10.21,-2.25l0 20.12c-2.8,1.4 -6.81,2.55 -12.01,3.45 -5.21,0.9 -10.21,1.35 -15.01,1.35 -8.41,0 -16.16,-1.45 -23.27,-4.36 -7.11,-2.9 -12.86,-7.96 -17.27,-15.16 -4.4,-7.21 -6.6,-17.32 -6.6,-30.33l0 -93.69 -22.82 0 0 -12.61 23.12 -10.51 10.51 -34.24 15.61 0 0 36.94 46.54 0 0 20.42 -46.54 0 0 93.09c0,9.81 2.35,17.07 7.06,21.77 4.7,4.7 10.76,7.06 18.17,7.06zm68.16 -202.69c4,0 7.56,1.35 10.66,4.05 3.1,2.7 4.65,6.96 4.65,12.76 0,5.6 -1.55,9.81 -4.65,12.61 -3.1,2.8 -6.66,4.21 -10.66,4.21 -4.4,0 -8.1,-1.4 -11.11,-4.21 -3,-2.8 -4.51,-7.01 -4.51,-12.61 0,-5.8 1.5,-10.06 4.51,-12.76 3,-2.7 6.71,-4.05 11.11,-4.05zm12.91 60.36l0 160.95 -26.42 0 0 -160.95 26.42 0zm104.8 142.33c4,0 8.11,-0.35 12.31,-1.05 4.21,-0.7 7.61,-1.45 10.21,-2.25l0 20.12c-2.8,1.4 -6.81,2.55 -12.01,3.45 -5.21,0.9 -10.21,1.35 -15.01,1.35 -8.41,0 -16.16,-1.45 -23.27,-4.36 -7.11,-2.9 -12.86,-7.96 -17.27,-15.16 -4.4,-7.21 -6.6,-17.32 -6.6,-30.33l0 -93.69 -22.82 0 0 -12.61 23.12 -10.51 10.51 -34.24 15.61 0 0 36.94 46.54 0 0 20.42 -46.54 0 0 93.09c0,9.81 2.35,17.07 7.06,21.77 4.7,4.7 10.76,7.06 18.17,7.06zm189.17 -142.33l0 160.95 -21.62 0 -3.9 -21.32 -1.2 0c-5.21,8.41 -12.41,14.56 -21.62,18.47 -9.21,3.9 -19.02,5.86 -29.43,5.86 -19.42,0 -34.03,-4.65 -43.84,-13.96 -9.81,-9.31 -14.71,-24.17 -14.71,-44.59l0 -105.4 26.73 0 0 103.6c0,25.62 11.91,38.44 35.73,38.44 17.82,0 30.18,-5 37.08,-15.01 6.91,-10.01 10.36,-24.42 10.36,-43.24l0 -83.78 26.42 0zm104.8 142.33c4,0 8.11,-0.35 12.31,-1.05 4.21,-0.7 7.61,-1.45 10.21,-2.25l0 20.12c-2.8,1.4 -6.81,2.55 -12.01,3.45 -5.21,0.9 -10.21,1.35 -15.01,1.35 -8.41,0 -16.16,-1.45 -23.27,-4.36 -7.11,-2.9 -12.86,-7.96 -17.27,-15.16 -4.4,-7.21 -6.6,-17.32 -6.6,-30.33l0 -93.69 -22.82 0 0 -12.61 23.12 -10.51 10.51 -34.24 15.61 0 0 36.94 46.54 0 0 20.42 -46.54 0 0 93.09c0,9.81 2.35,17.07 7.06,21.77 4.7,4.7 10.76,7.06 18.17,7.06zm-3938.47 217.25c-23.02,0 -41.14,7.71 -54.35,23.12 -13.21,15.41 -19.82,36.53 -19.82,63.36 0,26.62 6.15,47.69 18.47,63.21 12.31,15.51 30.78,23.27 55.4,23.27 9.41,0 18.31,-0.8 26.73,-2.4 8.41,-1.6 16.61,-3.6 24.62,-6.01l0 23.43c-8.01,3 -16.27,5.21 -24.77,6.6 -8.51,1.4 -18.67,2.1 -30.48,2.1 -21.82,0 -40.04,-4.5 -54.65,-13.51 -14.61,-9.01 -25.57,-21.82 -32.88,-38.44 -7.3,-16.62 -10.96,-36.14 -10.96,-58.56 0,-21.62 3.95,-40.69 11.86,-57.2 7.91,-16.52 19.57,-29.43 34.98,-38.74 15.41,-9.31 34.13,-13.96 56.15,-13.96 22.62,0 42.34,4.21 59.15,12.61l-10.81 22.82c-6.6,-3 -13.96,-5.7 -22.07,-8.11 -8.11,-2.4 -16.97,-3.6 -26.58,-3.6zm-20.72 -41.74c-2.6,-4.6 -6.1,-9.56 -10.51,-14.86 -4.4,-5.3 -9.01,-10.56 -13.81,-15.76 -4.8,-5.2 -9.01,-9.71 -12.61,-13.51l0 -3.9 18.02 0c5.2,3.41 10.61,7.5 16.21,12.31 5.61,4.8 10.91,9.9 15.92,15.31 5.41,-5.41 10.91,-10.51 16.51,-15.31 5.61,-4.81 11.01,-8.91 16.22,-12.31l18.62 0 0 3.9c-3.8,3.8 -8.16,8.31 -13.06,13.51 -4.9,5.21 -9.61,10.46 -14.11,15.76 -4.51,5.31 -7.96,10.26 -10.36,14.86l-27.03 0zm177.17 71.47c13.81,0 25.67,3 35.58,9.01 9.91,6.01 17.51,14.46 22.82,25.37 5.31,10.91 7.96,23.67 7.96,38.28l0 15.92 -110.2 0c0.4,18.22 5.05,32.08 13.96,41.59 8.91,9.51 21.37,14.27 37.39,14.27 10.21,0 19.27,-0.95 27.17,-2.85 7.91,-1.9 16.07,-4.66 24.47,-8.26l0 23.12c-8.2,3.6 -16.31,6.25 -24.32,7.96 -8.01,1.7 -17.51,2.55 -28.53,2.55 -15.22,0 -28.68,-3.1 -40.39,-9.31 -11.71,-6.2 -20.82,-15.46 -27.33,-27.77 -6.5,-12.31 -9.76,-27.38 -9.76,-45.2 0,-17.62 2.95,-32.73 8.86,-45.34 5.91,-12.61 14.22,-22.32 24.92,-29.12 10.71,-6.81 23.17,-10.21 37.38,-10.21zm-0.3 21.62c-12.62,0 -22.58,4.05 -29.88,12.16 -7.31,8.11 -11.66,19.37 -13.06,33.78l81.98 0c-0.2,-13.62 -3.41,-24.67 -9.61,-33.18 -6.21,-8.51 -16.02,-12.76 -29.43,-12.76zm212.3 97.89c0,15.61 -5.8,27.42 -17.41,35.43 -11.61,8.01 -27.23,12.01 -46.85,12.01 -11.21,0 -20.87,-0.9 -28.98,-2.7 -8.1,-1.8 -15.26,-4.31 -21.47,-7.51l0 -24.02c6.41,3.2 14.16,6.15 23.27,8.86 9.1,2.7 18.37,4.05 27.78,4.05 13.41,0 23.12,-2.15 29.12,-6.46 6.01,-4.31 9.01,-10.06 9.01,-17.26 0,-4 -1.1,-7.61 -3.3,-10.81 -2.2,-3.2 -6.16,-6.41 -11.86,-9.61 -5.7,-3.2 -13.86,-6.81 -24.47,-10.81 -10.41,-4 -19.32,-8.01 -26.73,-12.01 -7.4,-4 -13.11,-8.81 -17.12,-14.41 -4,-5.6 -6.01,-12.81 -6.01,-21.62 0,-13.61 5.56,-24.12 16.67,-31.53 11.11,-7.41 25.67,-11.11 43.69,-11.11 9.81,0 18.97,0.95 27.48,2.85 8.51,1.9 16.46,4.55 23.87,7.96l-9 21.02c-6.81,-2.8 -13.91,-5.21 -21.32,-7.21 -7.4,-2 -15.01,-3 -22.82,-3 -10.81,0 -19.06,1.75 -24.77,5.26 -5.7,3.5 -8.56,8.25 -8.56,14.26 0,4.41 1.3,8.16 3.9,11.26 2.6,3.1 6.96,6.11 13.06,9.01 6.11,2.9 14.26,6.35 24.47,10.36 10.21,3.8 18.92,7.71 26.13,11.71 7.2,4 12.71,8.86 16.51,14.57 3.8,5.7 5.7,12.86 5.7,21.47zm65.16 -64.56c0,3.2 -0.15,7.41 -0.45,12.62 -0.3,5.2 -0.55,9.71 -0.75,13.51l1.2 0c1.2,-1.6 3,-3.9 5.4,-6.91 2.4,-3 4.85,-6.06 7.36,-9.16 2.5,-3.1 4.65,-5.65 6.45,-7.66l51.35 -54.35 30.93 0 -65.16 68.76 69.66 92.19 -31.83 0 -55.85 -75.07 -18.31 15.92 0 59.15 -26.13 0 0 -228.21 26.13 0 0 119.21zm196.38 -54.95c13.81,0 25.67,3 35.58,9.01 9.91,6.01 17.51,14.46 22.82,25.37 5.31,10.91 7.96,23.67 7.96,38.28l0 15.92 -110.2 0c0.4,18.22 5.05,32.08 13.96,41.59 8.91,9.51 21.37,14.27 37.39,14.27 10.21,0 19.27,-0.95 27.17,-2.85 7.91,-1.9 16.07,-4.66 24.47,-8.26l0 23.12c-8.2,3.6 -16.31,6.25 -24.32,7.96 -8.01,1.7 -17.51,2.55 -28.53,2.55 -15.22,0 -28.68,-3.1 -40.39,-9.31 -11.71,-6.2 -20.82,-15.46 -27.33,-27.77 -6.5,-12.31 -9.76,-27.38 -9.76,-45.2 0,-17.62 2.95,-32.73 8.86,-45.34 5.91,-12.61 14.22,-22.32 24.92,-29.12 10.71,-6.81 23.17,-10.21 37.38,-10.21zm-0.3 21.62c-12.62,0 -22.58,4.05 -29.88,12.16 -7.31,8.11 -11.66,19.37 -13.06,33.78l81.98 0c-0.2,-13.62 -3.41,-24.67 -9.61,-33.18 -6.21,-8.51 -16.02,-12.76 -29.43,-12.76zm42.64 -84.68c-2.4,3.6 -6.1,8.25 -11.11,13.96 -5,5.7 -10.36,11.41 -16.07,17.11 -5.7,5.71 -10.96,10.36 -15.76,13.96l-17.42 0 0 -3.6c3,-3.8 6.26,-8.31 9.76,-13.51 3.5,-5.21 6.96,-10.56 10.36,-16.07 3.41,-5.51 6.21,-10.46 8.41,-14.86l31.83 0 0 3zm218.01 63.06c3,0 6.26,0.15 9.76,0.45 3.51,0.3 6.56,0.75 9.16,1.35l-3.3 24.33c-2.6,-0.6 -5.45,-1.1 -8.56,-1.5 -3.1,-0.4 -6.06,-0.6 -8.86,-0.6 -8.21,0 -15.92,2.25 -23.12,6.76 -7.2,4.5 -12.96,10.81 -17.26,18.92 -4.31,8.1 -6.46,17.57 -6.46,28.38l0 85.88 -26.42 0 0 -160.95 21.62 0 3 29.43 1.2 0c5.21,-8.81 11.91,-16.41 20.12,-22.82 8.2,-6.4 17.92,-9.61 29.12,-9.61z"/>
   <path class="fil2" d="M2858.81 857.68c13.81,0 25.67,3 35.58,9.01 9.91,6.01 17.51,14.46 22.82,25.37 5.31,10.91 7.96,23.67 7.96,38.28l0 15.92 -110.2 0c0.4,18.22 5.05,32.08 13.96,41.59 8.91,9.51 21.37,14.27 37.39,14.27 10.21,0 19.27,-0.95 27.17,-2.85 7.91,-1.9 16.07,-4.66 24.47,-8.26l0 23.12c-8.2,3.6 -16.31,6.25 -24.32,7.96 -8.01,1.7 -17.51,2.55 -28.53,2.55 -15.22,0 -28.68,-3.1 -40.39,-9.31 -11.71,-6.2 -20.82,-15.46 -27.33,-27.77 -6.5,-12.31 -9.76,-27.38 -9.76,-45.2 0,-17.62 2.95,-32.73 8.86,-45.34 5.91,-12.61 14.22,-22.32 24.92,-29.12 10.71,-6.81 23.17,-10.21 37.38,-10.21zm-0.3 21.62c-12.62,0 -22.58,4.05 -29.88,12.16 -7.31,8.11 -11.66,19.37 -13.06,33.78l81.98 0c-0.2,-13.62 -3.41,-24.67 -9.61,-33.18 -6.21,-8.51 -16.02,-12.76 -29.43,-12.76zm184.07 -21.62c19.82,0 35.78,6.91 47.89,20.72 12.11,13.81 18.17,34.63 18.17,62.46 0,27.42 -6.06,48.24 -18.17,62.46 -12.11,14.21 -28.17,21.32 -48.19,21.32 -12.41,0 -22.67,-2.35 -30.78,-7.06 -8.11,-4.7 -14.46,-10.16 -19.07,-16.36l-1.8 0c0.4,3.4 0.8,7.71 1.2,12.91 0.4,5.2 0.6,9.71 0.6,13.51l0 66.06 -26.42 0 0 -233.02 21.62 0 3.61 21.92 1.2 0c4.81,-7.01 11.11,-12.91 18.92,-17.72 7.81,-4.8 18.22,-7.21 31.23,-7.21zm-4.8 22.22c-16.42,0 -27.98,4.61 -34.68,13.82 -6.71,9.21 -10.26,23.22 -10.66,42.04l0 5.11c0,19.82 3.25,35.08 9.76,45.79 6.5,10.71 18.57,16.07 36.18,16.07 9.81,0 17.87,-2.7 24.17,-8.11 6.31,-5.4 11.01,-12.76 14.11,-22.07 3.1,-9.31 4.65,-19.97 4.65,-31.98 0,-18.42 -3.55,-33.13 -10.66,-44.14 -7.11,-11.01 -18.06,-16.52 -32.88,-16.52zm247.43 -19.22l0 160.95 -21.62 0 -3.9 -21.32 -1.2 0c-5.21,8.41 -12.41,14.56 -21.62,18.47 -9.21,3.9 -19.02,5.86 -29.43,5.86 -19.42,0 -34.03,-4.65 -43.84,-13.96 -9.81,-9.31 -14.71,-24.17 -14.71,-44.59l0 -105.4 26.73 0 0 103.6c0,25.62 11.91,38.44 35.73,38.44 17.82,0 30.18,-5 37.08,-15.01 6.91,-10.01 10.36,-24.42 10.36,-43.24l0 -83.78 26.42 0zm77.47 -11.71c0,6.81 -0.15,13.16 -0.45,19.06 -0.3,5.91 -0.65,10.56 -1.05,13.96l1.5 0c4.61,-6.81 10.91,-12.51 18.92,-17.11 8.01,-4.61 18.32,-6.91 30.93,-6.91 20.02,0 36.08,6.96 48.19,20.87 12.11,13.91 18.17,34.68 18.17,62.3 0,27.63 -6.11,48.45 -18.32,62.46 -12.21,14.01 -28.22,21.02 -48.04,21.02 -12.61,0 -22.92,-2.3 -30.93,-6.91 -8.01,-4.6 -14.31,-10.11 -18.92,-16.51l-2.1 0 -5.41 20.42 -18.92 0 0 -228.21 26.42 0 0 55.55zm45.35 30.93c-17.02,0 -28.83,4.91 -35.44,14.72 -6.6,9.81 -9.91,25.02 -9.91,45.64l0 1.2c0,19.82 3.25,34.98 9.76,45.49 6.5,10.51 18.57,15.76 36.18,15.76 14.41,0 25.17,-5.3 32.28,-15.92 7.11,-10.61 10.66,-25.92 10.66,-45.94 0,-40.64 -14.51,-60.96 -43.54,-60.96zm139.32 141.73l-26.42 0 0 -228.21 26.42 0 0 228.21zm64.56 -221.31c4,0 7.56,1.35 10.66,4.05 3.1,2.7 4.65,6.96 4.65,12.76 0,5.6 -1.55,9.81 -4.65,12.61 -3.1,2.8 -6.66,4.21 -10.66,4.21 -4.4,0 -8.1,-1.4 -11.11,-4.21 -3,-2.8 -4.51,-7.01 -4.51,-12.61 0,-5.8 1.5,-10.06 4.51,-12.76 3,-2.7 6.71,-4.05 11.11,-4.05zm12.91 60.36l0 160.95 -26.42 0 0 -160.95 26.42 0zm77.18 51.95c0,3.2 -0.15,7.41 -0.45,12.62 -0.3,5.2 -0.55,9.71 -0.75,13.51l1.2 0c1.2,-1.6 3,-3.9 5.4,-6.91 2.4,-3 4.85,-6.06 7.36,-9.16 2.5,-3.1 4.65,-5.65 6.45,-7.66l51.35 -54.35 30.93 0 -65.16 68.76 69.66 92.19 -31.83 0 -55.85 -75.07 -18.31 15.92 0 59.15 -26.13 0 0 -228.21 26.13 0 0 119.21zm109 -51.95l28.22 0 34.83 91.58c3,8.01 5.7,15.66 8.11,22.97 2.4,7.31 4.2,14.27 5.4,20.87l1.2 0c1.2,-5 3.1,-11.56 5.7,-19.67 2.61,-8.11 5.31,-16.27 8.11,-24.47l32.73 -91.29 28.53 0 -69.37 183.17c-5.6,15.21 -12.86,27.32 -21.77,36.33 -8.91,9.01 -21.17,13.51 -36.79,13.51 -4.8,0 -9,-0.25 -12.61,-0.75 -3.6,-0.5 -6.71,-1.05 -9.31,-1.65l0 -21.02c2.2,0.4 4.85,0.8 7.96,1.2 3.1,0.4 6.35,0.6 9.76,0.6 9.21,0 16.66,-2.6 22.37,-7.81 5.7,-5.21 10.16,-12.11 13.37,-20.72l8.41 -21.32 -64.86 -161.55z"/>
  </g>
 </g>
</svg>
